<svg width="16" height="16" viewBox="0 0 16 16" fill="none" xmlns="http://www.w3.org/2000/svg">
<path fill-rule="evenodd" clip-rule="evenodd" d="M10.6667 10.6667C10.6667 11.0334 10.3667 11.3334 10 11.3334C9.63337 11.3334 9.33337 11.0334 9.33337 10.6667V8.00004C9.33337 7.63337 9.63337 7.33337 10 7.33337C10.3667 7.33337 10.6667 7.63337 10.6667 8.00004V10.6667ZM6.66671 2.88537C6.66671 2.78204 6.80937 2.66671 7.00004 2.66671H9.00004C9.19071 2.66671 9.33337 2.78204 9.33337 2.88537V4.00004H6.66671V2.88537ZM6.66671 10.6667C6.66671 11.0334 6.36671 11.3334 6.00004 11.3334C5.63337 11.3334 5.33337 11.0334 5.33337 10.6667V8.00004C5.33337 7.63337 5.63337 7.33337 6.00004 7.33337C6.36671 7.33337 6.66671 7.63337 6.66671 8.00004V10.6667ZM14 4.00004H13.3334H10.6667V2.88537C10.6667 2.02937 9.91937 1.33337 9.00004 1.33337H7.00004C6.08071 1.33337 5.33337 2.02937 5.33337 2.88537V4.00004H2.66671H2.00004C1.63337 4.00004 1.33337 4.30004 1.33337 4.66671C1.33337 5.03337 1.63337 5.33337 2.00004 5.33337H2.66671V12.6667C2.66671 13.7694 3.56404 14.6667 4.66671 14.6667H11.3334C12.436 14.6667 13.3334 13.7694 13.3334 12.6667V5.33337H14C14.3667 5.33337 14.6667 5.03337 14.6667 4.66671C14.6667 4.30004 14.3667 4.00004 14 4.00004Z" fill="#DA2F2F"/>
<mask id="mask0_204_372" style="mask-type:luminance" maskUnits="userSpaceOnUse" x="1" y="1" width="14" height="14">
<path fill-rule="evenodd" clip-rule="evenodd" d="M10.6667 10.6667C10.6667 11.0334 10.3667 11.3334 10 11.3334C9.63337 11.3334 9.33337 11.0334 9.33337 10.6667V8.00004C9.33337 7.63337 9.63337 7.33337 10 7.33337C10.3667 7.33337 10.6667 7.63337 10.6667 8.00004V10.6667ZM6.66671 2.88537C6.66671 2.78204 6.80937 2.66671 7.00004 2.66671H9.00004C9.19071 2.66671 9.33337 2.78204 9.33337 2.88537V4.00004H6.66671V2.88537ZM6.66671 10.6667C6.66671 11.0334 6.36671 11.3334 6.00004 11.3334C5.63337 11.3334 5.33337 11.0334 5.33337 10.6667V8.00004C5.33337 7.63337 5.63337 7.33337 6.00004 7.33337C6.36671 7.33337 6.66671 7.63337 6.66671 8.00004V10.6667ZM14 4.00004H13.3334H10.6667V2.88537C10.6667 2.02937 9.91937 1.33337 9.00004 1.33337H7.00004C6.08071 1.33337 5.33337 2.02937 5.33337 2.88537V4.00004H2.66671H2.00004C1.63337 4.00004 1.33337 4.30004 1.33337 4.66671C1.33337 5.03337 1.63337 5.33337 2.00004 5.33337H2.66671V12.6667C2.66671 13.7694 3.56404 14.6667 4.66671 14.6667H11.3334C12.436 14.6667 13.3334 13.7694 13.3334 12.6667V5.33337H14C14.3667 5.33337 14.6667 5.03337 14.6667 4.66671C14.6667 4.30004 14.3667 4.00004 14 4.00004Z" fill="white"/>
</mask>
<g mask="url(#mask0_204_372)">
<rect width="16" height="16" fill="#DA2F2F"/>
</g>
</svg>
