<svg width="16" height="16" viewBox="0 0 16 16" fill="none" xmlns="http://www.w3.org/2000/svg">
<path fill-rule="evenodd" clip-rule="evenodd" d="M11.977 4.48582L10.181 2.68982L8.88229 3.98916L10.679 5.78582L11.977 4.48582ZM3.39363 11.9972C3.37363 11.9992 3.35363 11.9998 3.33363 11.9998C3.15763 11.9998 2.98763 11.9305 2.86163 11.8045C2.72229 11.6645 2.65163 11.4698 2.66896 11.2732L2.92163 8.49316C2.94963 8.18849 3.08429 7.90049 3.30163 7.68382L9.29896 1.68649C9.76696 1.21649 10.6156 1.23982 11.1096 1.73249L12.935 3.55782L12.9356 3.55849C13.4456 4.06916 13.4663 4.88116 12.981 5.36782L6.98296 11.3658C6.76629 11.5825 6.47896 11.7172 6.17363 11.7452L3.39363 11.9972ZM3.33329 13.3334H12.6666C13.0333 13.3334 13.3333 13.6334 13.3333 14C13.3333 14.3667 13.0333 14.6667 12.6666 14.6667H3.33329C2.96663 14.6667 2.66663 14.3667 2.66663 14C2.66663 13.6334 2.96663 13.3334 3.33329 13.3334Z" fill="#121212"/>
<mask id="mask0_204_371" style="mask-type:luminance" maskUnits="userSpaceOnUse" x="2" y="1" width="12" height="14">
<path fill-rule="evenodd" clip-rule="evenodd" d="M11.977 4.48582L10.181 2.68982L8.88229 3.98916L10.679 5.78582L11.977 4.48582ZM3.39363 11.9972C3.37363 11.9992 3.35363 11.9998 3.33363 11.9998C3.15763 11.9998 2.98763 11.9305 2.86163 11.8045C2.72229 11.6645 2.65163 11.4698 2.66896 11.2732L2.92163 8.49316C2.94963 8.18849 3.08429 7.90049 3.30163 7.68382L9.29896 1.68649C9.76696 1.21649 10.6156 1.23982 11.1096 1.73249L12.935 3.55782L12.9356 3.55849C13.4456 4.06916 13.4663 4.88116 12.981 5.36782L6.98296 11.3658C6.76629 11.5825 6.47896 11.7172 6.17363 11.7452L3.39363 11.9972ZM3.33329 13.3334H12.6666C13.0333 13.3334 13.3333 13.6334 13.3333 14C13.3333 14.3667 13.0333 14.6667 12.6666 14.6667H3.33329C2.96663 14.6667 2.66663 14.3667 2.66663 14C2.66663 13.6334 2.96663 13.3334 3.33329 13.3334Z" fill="white"/>
</mask>
<g mask="url(#mask0_204_371)">
<rect width="16" height="16" fill="#121212"/>
</g>
</svg>
