<svg width="16" height="17" viewBox="0 0 16 17" fill="none" xmlns="http://www.w3.org/2000/svg">
<g id="enter">
<path id="Union" d="M2.05059 9.70123C2.01799 9.77983 2 9.86603 2 9.95642C2 10.1338 2.06929 10.295 2.18229 10.4145C2.18705 10.4195 2.19189 10.4245 2.1968 10.4294L4.86193 13.0945C5.12228 13.3548 5.54439 13.3548 5.80474 13.0945C6.06509 12.8342 6.06509 12.412 5.80474 12.1517L4.27614 10.6231H10.6667C12.5076 10.6231 14 9.13069 14 7.28975V4.62309C14 4.25489 13.7015 3.95642 13.3333 3.95642C12.9651 3.95642 12.6667 4.25489 12.6667 4.62309V7.28975C12.6667 8.39435 11.7713 9.28975 10.6667 9.28975H4.27614L5.80474 7.76115C6.06509 7.50082 6.06509 7.0787 5.80474 6.81835C5.54439 6.558 5.12228 6.558 4.86193 6.81835L2.1968 9.48348C2.19219 9.48806 2.18765 9.4927 2.18318 9.49741C2.12524 9.55838 2.08104 9.62763 2.05059 9.70123Z" fill="white" fill-opacity="0.8"/>
</g>
</svg>
