<svg width="16" height="16" viewBox="0 0 16 16" fill="none" xmlns="http://www.w3.org/2000/svg">
<path fill-rule="evenodd" clip-rule="evenodd" d="M2 7.99996C2 7.26396 2.59733 6.66663 3.33333 6.66663C4.06933 6.66663 4.66667 7.26396 4.66667 7.99996C4.66667 8.73596 4.06933 9.33329 3.33333 9.33329C2.59733 9.33329 2 8.73596 2 7.99996ZM8 6.66663C7.264 6.66663 6.66667 7.26396 6.66667 7.99996C6.66667 8.73596 7.264 9.33329 8 9.33329C8.736 9.33329 9.33333 8.73596 9.33333 7.99996C9.33333 7.26396 8.736 6.66663 8 6.66663ZM12.6667 6.66663C11.9307 6.66663 11.3333 7.26396 11.3333 7.99996C11.3333 8.73596 11.9307 9.33329 12.6667 9.33329C13.4027 9.33329 14 8.73596 14 7.99996C14 7.26396 13.4027 6.66663 12.6667 6.66663Z" fill="#121212"/>
<mask id="mask0_204_364" style="mask-type:luminance" maskUnits="userSpaceOnUse" x="2" y="6" width="12" height="4">
<path fill-rule="evenodd" clip-rule="evenodd" d="M2 7.99996C2 7.26396 2.59733 6.66663 3.33333 6.66663C4.06933 6.66663 4.66667 7.26396 4.66667 7.99996C4.66667 8.73596 4.06933 9.33329 3.33333 9.33329C2.59733 9.33329 2 8.73596 2 7.99996ZM8 6.66663C7.264 6.66663 6.66667 7.26396 6.66667 7.99996C6.66667 8.73596 7.264 9.33329 8 9.33329C8.736 9.33329 9.33333 8.73596 9.33333 7.99996C9.33333 7.26396 8.736 6.66663 8 6.66663ZM12.6667 6.66663C11.9307 6.66663 11.3333 7.26396 11.3333 7.99996C11.3333 8.73596 11.9307 9.33329 12.6667 9.33329C13.4027 9.33329 14 8.73596 14 7.99996C14 7.26396 13.4027 6.66663 12.6667 6.66663Z" fill="white"/>
</mask>
<g mask="url(#mask0_204_364)">
<rect width="16" height="16" fill="#121212"/>
</g>
</svg>
